<?xml version="1.0" encoding="utf-8"?>
<!-- Generator: Adobe Illustrator 20.1.0, SVG Export Plug-In . SVG Version: 6.00 Build 0)  -->
<svg version="1.1" id="Layer_1" xmlns="http://www.w3.org/2000/svg" xmlns:xlink="http://www.w3.org/1999/xlink" x="0px" y="0px"
	 viewBox="0 0 213.9 126.7" style="enable-background:new 0 0 213.9 126.7;" xml:space="preserve">
<style type="text/css">
	.st0{fill:#878787;}
	.st1{fill:#076CB5;}
	.st2{fill:#54AE32;}
</style>
<g>
	<path class="st0" d="M85.3,45.3h5.8l-2.8-8.5h-0.1L85.3,45.3z M92.1,28.5l10,26.7h-7.4L93,50.6h-9.6l-1.8,4.6h-7.4l10.3-26.7H92.1z
		"/>
	<path class="st0" d="M120.9,37.5c-1.4-1.9-3.7-2.9-6.1-2.9c-4.1,0-7.1,3.1-7.1,7.4c0,4.4,3,7.3,7.2,7.3c2.2,0,4.5-1,6-2.8v8.3
		c-3.6,1.1-4.5,1.2-6.1,1.2c-5.1,0-10.1-2.8-12.6-7c-1.1-2-1.7-4.3-1.7-7c0-8.3,6.9-14.1,14.1-14.1c2.2,0,4.2,0.5,6.3,1.3V37.5z"/>
	<polygon class="st0" points="141.7,28.5 141.7,34.4 135.9,34.4 135.9,55.2 129,55.2 129,34.4 123.3,34.4 123.3,28.5 	"/>
	<rect x="143.9" y="28.5" class="st0" width="6.9" height="26.7"/>
	<path class="st0" d="M175.2,41.4c0-3.7-3.5-7-7.6-7c-3.9,0-7.5,3.2-7.5,7c0,4.6,3.4,8,7.5,8C171.9,49.4,175.2,45.9,175.2,41.4
		 M167.9,56.1c-9.7,0-15-7.1-15-14.4c0-7,4.5-10.3,5.9-11.3c3.3-2.3,6.5-2.8,8.9-2.8c7.6,0,14.8,5.6,14.8,13.7
		C182.4,50.7,175.4,56.1,167.9,56.1"/>
	<polygon class="st0" points="191.5,28.5 204.2,44.9 204.3,44.9 204.3,28.5 211.2,28.5 211.2,55.2 204.3,55.2 191.6,38.9 
		191.5,38.9 191.5,55.2 184.6,55.2 184.6,28.5 	"/>
	<path class="st0" d="M83.8,75.5h5l-2.4-7.3h-0.1L83.8,75.5z M89.6,61.1l8.6,22.9h-6.4l-1.5-4h-8.2l-1.6,4h-6.3l8.8-22.9H89.6z"/>
	<path class="st0" d="M119.9,66.8l-5.7,2.4c-0.9-2.3-2.7-3.7-5-3.7c-4.2,0-6,4.1-6,7.2c0,3,1.8,7.2,6.1,7.2c2.8,0,4.6-1.5,4.8-4
		h-4.9v-4.7h11.8c0,2.8-0.4,5-0.9,6.4c-1.7,4.4-5.4,7.2-10.9,7.2c-7.2,0-12.2-4.8-12.2-12.1c0-7.5,5.1-12.4,12.4-12.4
		C114.3,60.4,117.9,62.5,119.9,66.8"/>
	<path class="st0" d="M129.5,75.5h5l-2.4-7.3H132L129.5,75.5z M135.3,61.1l8.6,22.9h-6.4l-1.5-4h-8.2l-1.6,4H120l8.8-22.9H135.3z"/>
	<rect x="145.1" y="61.1" class="st0" width="6" height="22.9"/>
	<polygon class="st0" points="159.2,61.1 170.1,75.1 170.2,75.1 170.2,61.1 176.2,61.1 176.2,84.1 170.2,84.1 159.3,70 159.2,70 
		159.2,84.1 153.2,84.1 153.2,61.1 	"/>
	<path class="st0" d="M193.7,62.4l-2.4,4.6c-1.1-0.9-2.5-1.5-4-1.5c-1.3,0-2.6,0.8-2.6,1.9c0,1,0.9,1.7,3.1,2.3
		c1.2,0.3,2.2,0.6,3.1,1.1c2.2,1.1,3.6,2.7,3.6,5.5c0,2.8-0.9,4.9-2.4,6.2c-1.9,1.6-4.2,2.2-6.5,2.2c-2.8,0-5.7-1-8-2.6l2.6-4.8
		c1.9,1.7,3.6,2.4,5.3,2.4c1.7,0,2.9-0.9,2.9-2.3c0-1.7-2.3-2.2-3.6-2.6c-3-1-6.2-1.5-6.2-6.5c0-4.7,3.3-7.7,7.9-7.7
		C188.8,60.5,191.6,61.2,193.7,62.4"/>
	<polygon class="st0" points="211.4,61.1 211.4,66.2 206.4,66.2 206.4,84.1 200.5,84.1 200.5,66.2 195.5,66.2 195.5,61.1 	"/>
	<polygon class="st0" points="81.3,90 81.3,99.4 90.5,99.4 90.5,90 96.8,90 96.8,114.4 90.5,114.4 90.5,104.4 81.3,104.4 
		81.3,114.4 75,114.4 75,90 	"/>
	<path class="st0" d="M105.7,90v13.1c0,3.1,0.4,6.4,4.3,6.4c3.9,0,4.3-3.2,4.3-6.4V90h6.3v14c0,2.8-0.3,4.7-1.1,6.3
		c-1.4,2.8-4.8,4.7-9.6,4.7c-2.6,0-5.9-0.5-8.1-2.7c-1.9-1.9-2.6-4.2-2.6-8.3V90H105.7z"/>
	<polygon class="st0" points="129.6,90 141.2,104.9 141.3,104.9 141.3,90 147.6,90 147.6,114.4 141.3,114.4 129.6,99.4 129.6,99.4 
		129.6,114.4 123.2,114.4 123.2,90 	"/>
	<path class="st0" d="M173.9,96l-6,2.5c-0.9-2.5-2.8-3.9-5.3-3.9c-4.5,0-6.3,4.4-6.3,7.7c0,3.2,1.9,7.6,6.4,7.6c3,0,4.9-1.6,5.1-4.2
		h-5.2v-5h12.6c0,3-0.4,5.3-1,6.8c-1.8,4.7-5.8,7.6-11.6,7.6c-7.6,0-13-5.1-13-12.9c0-8,5.4-13.1,13.2-13.1
		C168,89.2,171.8,91.4,173.9,96"/>
	<polygon class="st0" points="191.3,90 191.3,95.4 183.7,95.4 183.7,99.4 190.9,99.4 190.9,104.8 183.7,104.8 183.7,109 191.3,109 
		191.3,114.4 177.4,114.4 177.4,90 	"/>
	<path class="st0" d="M200,100.9h0.6c3.1,0,4.5-1,4.5-3c0-2.1-1.3-3-4.5-3H200V100.9z M203.2,90c4.9,0,8.4,2.5,8.4,7.5
		c0,3.5-2,6.3-5.3,6.9l7.7,10H206l-6-9.4H200v9.4h-6.3V90H203.2z"/>
	<g>
		<path class="st1" d="M32.4,70.3c-15.6,0-28.2,12.6-28.2,28.2c0,15.6,12.6,28.2,28.2,28.2c15.6,0,28.2-12.6,28.2-28.2
			C60.6,82.9,48,70.3,32.4,70.3z M32.4,114.4L32.4,114.4L32.4,114.4L32.4,114.4c-8.3,0-15.5-6.8-15-15.4
			c0.6-11.5,10.8-13.2,14.3-18.3c0.2-0.3,0.4-0.4,0.8-0.4c0.3,0,0.6,0.2,0.8,0.4h0c3.5,5.2,13.7,6.8,14.3,18.3
			C47.9,107.6,40.7,114.4,32.4,114.4z"/>
	</g>
	<path class="st2" d="M32.4,63c0.5,0,0.9-0.3,1.1-0.7c1.6-2.9,5.7-5.5,9.9-8.2c2.2-1.4,4.5-3,6.6-4.5c9-6.4,14.8-16.5,14.8-27.9
		c0-0.4,0-0.7,0-1.1l0-0.4l-0.4,0c-7,0.8-13.6,3.7-19,8.4c0-0.6,0-1.1,0-1.6c0-10.6-4.7-20.3-12.8-26.8L32.4,0l-0.3,0.2
		C24,6.6,19.4,16.4,19.4,27c0,0.5,0,1.1,0,1.6c-5.4-4.7-12-7.6-19-8.4l-0.4,0l0,0.4c0,0.4,0,0.7,0,1.1C0,33,5.8,43.1,14.8,49.6
		c2.1,1.5,4.3,3.1,6.6,4.5c4.3,2.8,8.3,5.4,9.9,8.2C31.5,62.8,31.9,63,32.4,63"/>
</g>
</svg>
